ply
format ascii 1.0
element vertex 27
property float x
property float y
property float z
property uchar red
property uchar green
property uchar blue
end_header
0.510702 0.676955 -2.9589 0 255 0
-8.3124 6.22369 -0.71387 0 255 0
-29.5594 13.4213 1.14454 0 255 0
-14.397 -3.53018 -60.904 0 255 0
-21.104 31.6083 8.94274 0 255 0
-29.5122 13.3807 1.19351 0 255 0
-78.0181 34.7804 -117.014 0 255 0
3.23933 28.8491 -157.986 0 255 0
-24.662 -60.5192 -130.013 0 255 0
44.3771 38.2013 57.7341 0 255 0
-5.39678 -4.36078 -1.36881 0 255 0
-92.4042 -2.39187 -107.466 0 255 0
9.0183 23.9098 -129.492 0 255 0
-30.0852 53.8778 -8.67218 0 255 0
0.451855 -0.222302 -9.42019 131 99 79
0.178879 -0.0192654 -8.62818 59 46 24
0.0855812 0.142717 -7.94988 160 126 110
-7.06592 5.32792 -1.01948 62 36 25
1.08626 -1.16783 -2.99232 114 116 107
7.88636 -2.08159 0.772581 62 31 18
8.83029 2.00906 0.0231584 76 59 42
5.913 6.32553 -2.705 96 62 44
-6.7803 5.44453 -0.504994 86 45 28
5.88352 6.37505 -2.68577 95 63 46
-6.85908 5.32034 -1.22464 64 34 24
-1.42125 1.09607 -2.85231 92 90 83
7.42896 -3.21861 1.05374 114 99 86
