ply
format ascii 1.0
element vertex 41
property float x
property float y
property float z
property uchar red
property uchar green
property uchar blue
end_header
0.0504613 3.30136 2.6226 0 255 0
0.781904 1.53636 1.16487 0 255 0
0.747276 1.60339 1.0984 0 255 0
-0.992441 5.00555 -3.60418 0 255 0
0.884957 0.929288 19.0106 0 255 0
-1.42121 4.3266 1.55382 0 255 0
-2.09298 2.88654 3.45418 0 255 0
0.548652 0.576138 -0.423104 0 255 0
3.12679 0.417265 -0.0138499 0 255 0
0.729241 2.17071 1.36839 0 255 0
0.196704 0.233837 -0.213209 0 255 0
-0.211343 2.74346 -1.54704 0 255 0
0.237503 1.31744 0.318724 255 170 172
1.43891 -3.92891 -9.72636 168 152 119
0.0534213 0.561153 -0.559675 254 192 186
0.462396 0.67282 0.762055 158 160 154
0.0256908 0.838019 0.21023 162 62 60
0.502536 1.04111 0.129884 240 69 72
0.425626 1.23949 0.143671 100 91 80
0.527513 1.26216 0.0703067 52 60 65
0.277498 1.31209 0.201927 173 169 141
0.253407 1.30937 0.164815 170 166 135
0.411111 1.41779 0.0453495 176 154 105
0.559654 1.1099 0.301486 196 106 88
-0.215456 0.85342 -0.829961 146 140 118
-0.232892 0.466771 -1.47769 230 180 2
-0.211761 0.747636 -1.94147 208 180 126
-0.436667 -2.51163 -0.21133 44 38 39
0.232043 1.005 0.459268 224 144 131
-3.27768 -0.26882 -3.21672 98 52 25
-3.22324 -0.210163 -3.27966 15 8 6
-2.51565 0.519271 -3.25583 68 40 22
-2.45326 -0.45886 -3.16714 150 91 40
-2.35615 -0.674207 -3.20901 31 33 47
-0.179142 -1.79585 -2.38492 206 76 74
1.79187 -2.86789 -4.60726 254 180 180
3.45935 -2.61838 -1.88477 35 16 0
-2.44886 -0.458172 -3.16465 100 69 38
-0.0869104 2.05846 0.584684 150 128 86
-0.082238 2.07046 0.606918 155 136 99
-2.37326 2.21887 -0.577298 69 60 52
