ply
format ascii 1.0
element vertex 24
property float x
property float y
property float z
property uchar red
property uchar green
property uchar blue
end_header
0.663824 0.396549 0.356114 0 255 0
1.76698 0.669303 0.126707 0 255 0
21.9624 2.33572 21.9762 0 255 0
-0.506988 0.00588003 -1.69869 0 255 0
-10.9045 4.62615 -60.1909 0 255 0
-1.54241 0.171939 -2.36482 0 255 0
99.9709 2.11519 98.4903 0 255 0
-0.581851 0.253028 -0.711328 0 255 0
-0.242966 0.147847 -1.58013 0 255 0
-4.41664 0.13635 -0.381146 0 255 0
0.078518 0.82294 -9.32501 0 255 0
0.586964 0.448704 1.86789 54 62 84
0.572818 0.381336 1.806 140 140 142
0.348923 0.20383 2.14744 134 137 188
0.1686 0.420179 3.14998 64 55 74
0.781076 0.324894 1.05895 133 124 106
0.3605 0.404891 0.06759 168 161 168
-0.107649 0.221337 -0.225557 132 148 172
0.40828 0.277058 -0.010747 127 104 101
0.332468 0.355093 0.14178 52 55 56
-0.581826 0.253041 -0.711279 111 109 118
-1.57512 -0.679989 1.81175 169 164 169
-0.3186 0.289783 -0.530798 76 78 84
-5.40374 -0.0248993 -0.613417 74 82 136
